<svg width="152" height="56" viewBox="0 0 152 56" fill="none" xmlns="http://www.w3.org/2000/svg">
<path d="M42.9207 4.8268C42.9207 7.97178 40.6282 9.29536 38.3358 9.29536H26.7139V50.7595C26.7139 53.7388 24.8316 55.6426 21.64 55.6426C18.4484 55.6426 16.566 53.7388 16.566 50.8427V9.29536H4.85597C2.56354 9.29536 0.353455 7.97178 0.353455 4.8268C0.353455 1.68182 2.56354 0.357391 4.85597 0.357391H38.3391C40.6315 0.357391 42.9207 1.68182 42.9207 4.8268Z" fill="#5446F6"/>
<path d="M21.6384 56.0042C19.9947 56.0042 18.6189 55.5156 17.6599 54.5915C16.7008 53.6673 16.2092 52.3824 16.2092 50.8469V9.65274H4.85603C2.616 9.65274 0 8.38886 0 4.82679C0 1.26472 2.616 0 4.85603 0H38.3392C39.6468 0 40.8462 0.404475 41.7171 1.13774C42.7377 1.99799 43.2775 3.2728 43.2775 4.82679C43.2775 6.38078 42.7377 7.65223 41.7171 8.51499C40.8462 9.2491 39.6468 9.65274 38.3392 9.65274H27.0675V50.7595C27.0675 53.9919 24.9872 56.0042 21.6384 56.0042ZM4.85603 0.714768C1.79668 0.714768 0.707027 2.83889 0.707027 4.82679C0.707027 6.81469 1.79668 8.93797 4.85603 8.93797H16.9171V50.8427C16.9171 52.1781 17.343 53.294 18.1481 54.0701C18.9733 54.8648 20.1802 55.2852 21.6417 55.2852C24.5987 55.2852 26.3638 53.5933 26.3638 50.7595V8.93797H38.3417C40.2939 8.93797 42.573 7.86161 42.573 4.82679C42.573 1.79197 40.2914 0.714768 38.3392 0.714768H4.85603Z" fill="black"/>
<path d="M17.7439 16.8963C17.9086 16.9855 18.0917 17.0343 18.2785 17.039C18.4652 17.0437 18.6505 17.004 18.8194 16.9232C19.0497 16.8287 19.255 16.6812 19.4189 16.4922C19.5828 16.3033 19.7008 16.0783 19.7635 15.8351C18.9766 13.2628 18.6622 10.5567 18.7653 7.82548C18.6369 7.74519 18.4942 7.69092 18.3452 7.66571C18.0042 7.63964 17.6632 7.58666 17.2955 7.55975H17.2182C17.0347 7.55641 16.8566 7.62272 16.7191 7.74559C16.4829 7.9575 16.3514 8.2762 16.3248 8.64704C16.1436 11.2152 16.4283 13.7951 17.1649 16.2597C17.2115 16.4012 17.2872 16.531 17.3869 16.6407C17.4867 16.7504 17.6084 16.8375 17.7439 16.8963Z" fill="white"/>
<path d="M21.0762 16.5515C21.3648 16.7104 21.7316 16.6843 22.0743 16.5515L22.2582 16.4186C22.9144 16.1268 23.3079 15.4642 23.1241 14.8806C22.3586 12.3949 22.0733 9.78352 22.2839 7.18886C22.3106 6.79027 21.9695 6.41943 21.5237 6.36645C21.156 6.33954 20.7626 6.28657 20.3949 6.2605H20.3167C20.1218 6.26735 19.9354 6.34325 19.7902 6.47493C19.6102 6.63985 19.4977 6.86694 19.475 7.11149C19.2654 10.1085 19.5806 13.0264 20.4731 15.8376C20.5198 15.992 20.5975 16.1351 20.7012 16.2579C20.805 16.3807 20.9326 16.4807 21.0762 16.5515Z" fill="white"/>
<path d="M25.9819 11.2471C26.1863 11.5681 26.506 11.7963 26.8736 11.8836L27.1622 11.9627C27.3448 12.0058 27.5341 12.0116 27.719 11.9796C27.9038 11.9477 28.0805 11.8788 28.2386 11.7768C28.5562 11.5704 28.782 11.2471 28.8682 10.8754L29.7341 6.89538C29.7626 6.78339 29.7679 6.66667 29.7497 6.55251C29.7316 6.43835 29.6903 6.32921 29.6285 6.23191C29.5689 6.1307 29.4892 6.04309 29.3945 5.97463C29.2997 5.90616 29.1919 5.85833 29.0779 5.83416L27.7137 5.51546C27.6555 5.49498 27.5938 5.48668 27.5324 5.49107C27.3658 5.49051 27.2023 5.53649 27.0599 5.62393C26.9598 5.68415 26.8731 5.76472 26.8054 5.86054C26.7377 5.95636 26.6904 6.06535 26.6665 6.18061L25.8006 10.1589C25.758 10.3434 25.7521 10.5346 25.7832 10.7214C25.8143 10.9082 25.8819 11.0869 25.9819 11.2471Z" fill="white"/>
<path d="M15.3557 16.4717L15.5138 16.4187C15.9596 16.2597 16.2483 15.809 16.2741 15.3314C15.7975 13.3625 15.5945 11.336 15.671 9.31052C15.616 9.22368 15.5428 9.15012 15.4565 9.09505C15.3703 9.03998 15.2731 9.00474 15.1719 8.99182C14.8833 8.96575 14.568 8.91277 14.2794 8.88586H14.1962C14.0431 8.88694 13.8955 8.94365 13.7803 9.04564C13.5699 9.20457 13.4393 9.49636 13.4127 9.81422C13.2565 11.7491 13.4341 13.6968 13.9375 15.5702C13.9795 15.7547 14.0597 15.9282 14.1728 16.0791C14.2859 16.23 14.4294 16.3549 14.5938 16.4456C14.8575 16.5515 15.1195 16.5785 15.3557 16.4717Z" fill="white"/>
<path d="M28.5531 12.3344C28.2222 12.5435 27.8395 12.6537 27.4493 12.6522C27.2995 12.6463 27.1505 12.6286 27.0034 12.5993L26.7148 12.5202C26.4462 12.4617 26.1918 12.3496 25.9667 12.1904C25.7415 12.0312 25.55 11.8282 25.4034 11.5933C25.2568 11.3583 25.1581 11.0962 25.1131 10.8221C25.068 10.5481 25.0775 10.2678 25.141 9.9975L26.0069 6.01919C26.0504 5.80743 26.1399 5.60809 26.269 5.4356C26.0593 4.77213 25.354 3.07434 24.459 3.2072C23.7503 3.31316 23.252 3.57888 22.9617 3.97663C22.6207 4.45427 22.5458 5.1169 22.7255 6.04526L24.7451 12.8356C24.7604 12.8773 24.767 12.9217 24.7646 12.9661C24.7622 13.0105 24.7509 13.054 24.7312 13.0938C24.7116 13.1335 24.6841 13.1688 24.6504 13.1975C24.6167 13.2261 24.5776 13.2475 24.5355 13.2602C24.5036 13.2785 24.4673 13.2875 24.4307 13.2863C24.3612 13.2807 24.2946 13.2553 24.2388 13.213C24.183 13.1708 24.1402 13.1133 24.1154 13.0475L22.8594 8.82949C22.8564 10.8336 23.1482 12.8271 23.7253 14.7444C24.014 15.6694 23.4891 16.6785 22.4926 17.1048L22.3354 17.1889C22.0853 17.2924 21.8179 17.3463 21.5477 17.3478C21.2861 17.3489 21.0271 17.2948 20.7874 17.1889C20.532 17.0761 20.3069 16.9031 20.1311 16.6844C19.8861 17.0911 19.518 17.4072 19.0814 17.5858C18.8323 17.6917 18.5647 17.7458 18.2945 17.7448C18.0044 17.7497 17.717 17.6864 17.4552 17.5598C17.0086 17.3209 16.6675 16.9493 16.5403 16.4985V16.4456C16.33 16.7272 16.0492 16.947 15.7268 17.0821L15.5696 17.1351C15.3848 17.2083 15.1874 17.2435 14.989 17.2385H14.8842C15.33 18.3258 15.9331 19.3601 16.7465 20.2094C17.9535 21.4826 19.5281 22.1191 21.4171 22.1191C28.1072 22.1191 29.7076 16.443 29.8648 15.6442C29.7076 15.2456 29.1827 13.8404 28.6579 12.2486C28.6321 12.2814 28.5797 12.3075 28.5531 12.3344Z" fill="white"/>
<path d="M29.2094 11.6978C29.3427 11.4857 29.4402 11.2527 29.498 11.0083L30.3606 7.02913C30.4051 6.83028 30.4093 6.62439 30.3732 6.42383C30.337 6.22326 30.2612 6.03215 30.1501 5.86195C29.9297 5.51116 29.5806 5.26316 29.1794 5.17241L27.8444 4.87726C27.4984 4.80151 27.1371 4.84842 26.8213 5.01012C26.5327 4.21462 25.72 2.38398 24.3816 2.5715C23.4891 2.70436 22.8336 3.04913 22.4402 3.60581C22.0468 4.16249 21.9153 4.90585 22.0468 5.86027C21.9057 5.79716 21.7542 5.76122 21.6001 5.75432C21.2333 5.72825 20.8398 5.67527 20.4722 5.64836C20.2703 5.6301 20.0669 5.6528 19.8739 5.71515C19.6809 5.77749 19.5021 5.87821 19.3481 6.01139C19.1941 6.14458 19.068 6.30753 18.9772 6.49068C18.8864 6.67383 18.8328 6.87348 18.8194 7.0779V7.10481C18.7047 7.04896 18.579 7.02021 18.4517 7.02072C18.0849 6.96774 17.7439 6.94168 17.3762 6.91477C17.1828 6.89333 16.9871 6.91374 16.8021 6.97463C16.6171 7.03553 16.4471 7.13551 16.3032 7.26795C15.9438 7.58731 15.7186 8.03338 15.6735 8.51501C15.5359 8.43457 15.3847 8.38041 15.2277 8.35523C14.9391 8.32917 14.6238 8.27619 14.3352 8.24928C14.1622 8.22522 13.986 8.2388 13.8186 8.28912C13.6512 8.33945 13.4964 8.42535 13.3645 8.54107C12.9968 8.83287 12.7872 9.28359 12.7348 9.78814C12.5796 11.7939 12.757 13.8119 13.2597 15.7586C13.3684 16.2334 13.6491 16.6498 14.0466 16.9257C14.519 18.2779 15.2277 19.604 16.2508 20.6652C17.615 22.0712 19.3201 22.7608 21.393 22.7608H21.4196C29.028 22.7608 30.5494 15.7316 30.576 15.6526L30.6018 15.5458L30.5494 15.4928C30.5469 15.4642 29.8615 13.6605 29.2094 11.6978ZM27.0575 5.62398C27.2006 5.53609 27.365 5.49009 27.5325 5.49112C27.5949 5.48692 27.6574 5.49579 27.7163 5.51718L29.0804 5.83589C29.1945 5.86006 29.3023 5.90789 29.397 5.97635C29.4918 6.04482 29.5715 6.13243 29.6311 6.23363C29.6922 6.33091 29.7329 6.43985 29.7507 6.5537C29.7684 6.66754 29.7628 6.78386 29.7342 6.89543L28.8683 10.8737C28.7821 11.2455 28.5563 11.5687 28.2387 11.7752C28.0806 11.8771 27.9039 11.9461 27.7191 11.978C27.5342 12.0099 27.3449 12.0042 27.1623 11.961L26.8737 11.882C26.5061 11.7947 26.1864 11.5664 25.982 11.2454C25.8815 11.0854 25.8136 10.9068 25.782 10.72C25.7504 10.5332 25.7559 10.3419 25.7982 10.1573L26.6641 6.18066C26.688 6.0654 26.7353 5.95641 26.803 5.86058C26.8707 5.76476 26.9574 5.6842 27.0575 5.62398ZM19.4749 7.10901C19.4982 6.86536 19.6106 6.63927 19.7901 6.47497C19.9352 6.34457 20.1209 6.26961 20.315 6.26307H20.3932C20.7608 6.28913 21.1543 6.34211 21.5219 6.36902C21.9677 6.422 22.3088 6.78947 22.2822 7.19142C22.072 9.78647 22.3578 12.3982 23.1239 14.884C23.3078 15.4676 22.9143 16.1302 22.258 16.422L22.0742 16.5549C21.7332 16.6878 21.3664 16.7138 21.0761 16.5549C20.9321 16.4839 20.8041 16.3836 20.7002 16.2603C20.5963 16.1371 20.5187 15.9934 20.4722 15.8384C19.5805 13.0239 19.2652 10.106 19.4749 7.10901ZM16.3265 8.64703C16.3531 8.27619 16.4845 7.95749 16.7208 7.74558C16.8583 7.62271 17.0364 7.5564 17.2199 7.55974H17.3014C17.669 7.58665 18.0101 7.63963 18.3511 7.66569C18.5 7.69091 18.6427 7.74518 18.7712 7.82546C18.6663 10.5567 18.9808 13.2627 19.7693 15.8351C19.7067 16.0783 19.5887 16.3033 19.4248 16.4922C19.2609 16.6811 19.0556 16.8287 18.8252 16.9232C18.6563 17.004 18.4711 17.0437 18.2843 17.039C18.0975 17.0343 17.9144 16.9854 17.7497 16.8963C17.6145 16.8373 17.4932 16.7501 17.3937 16.6404C17.2942 16.5307 17.2188 16.401 17.1724 16.2597C16.4339 13.7955 16.1472 11.2155 16.3265 8.64703ZM13.9392 15.5702C13.4358 13.6967 13.2583 11.7491 13.4144 9.8142C13.441 9.49634 13.5716 9.20455 13.782 9.04562C13.8972 8.94363 14.0448 8.88693 14.1979 8.88585H14.2811C14.5698 8.91275 14.885 8.96994 15.1736 8.9918C15.2748 9.00472 15.372 9.03996 15.4582 9.09503C15.5445 9.1501 15.6177 9.22366 15.6727 9.3105C15.5963 11.336 15.7992 13.3625 16.2758 15.3314C16.25 15.809 15.9613 16.2564 15.5155 16.4187L15.3575 16.4716C15.1212 16.5784 14.8584 16.5557 14.5972 16.4456C14.4325 16.3551 14.2887 16.2302 14.1752 16.0793C14.0618 15.9284 13.9814 15.7549 13.9392 15.5702ZM21.4171 22.1217C19.5281 22.1217 17.9535 21.4851 16.7466 20.212C15.9331 19.3627 15.3325 18.3284 14.8842 17.2411H14.989C15.1864 17.2448 15.3827 17.2088 15.5662 17.1351L15.7235 17.0821C16.0459 16.947 16.3267 16.7272 16.5369 16.4456V16.4985C16.6675 16.9493 17.0086 17.321 17.4519 17.5598C17.7137 17.6864 18.001 17.7498 18.2912 17.7448C18.5614 17.7458 18.829 17.6917 19.0781 17.5858C19.5153 17.4075 19.884 17.0914 20.1295 16.6844C20.3053 16.9031 20.5303 17.0761 20.7858 17.1889C21.0255 17.2948 21.2844 17.3489 21.546 17.3479C21.8162 17.3463 22.0837 17.2924 22.3337 17.1889L22.491 17.1048C23.4891 16.6844 24.0123 15.6753 23.7237 14.7444C23.1472 12.827 22.8559 10.8336 22.8594 8.8295L24.1221 13.05C24.1469 13.1159 24.1897 13.1733 24.2455 13.2156C24.3013 13.2578 24.3678 13.2832 24.4374 13.2888C24.474 13.29 24.5103 13.281 24.5422 13.2628C24.5843 13.25 24.6234 13.2286 24.6571 13.2C24.6907 13.1714 24.7183 13.1361 24.7379 13.0963C24.7575 13.0565 24.7689 13.0131 24.7713 12.9686C24.7737 12.9242 24.767 12.8798 24.7518 12.8381L22.7288 6.04779C22.5417 5.11944 22.6249 4.4568 22.9651 3.97917C23.2537 3.58142 23.752 3.3157 24.4623 3.20974C25.354 3.07688 26.0627 4.77467 26.2723 5.43814C26.1433 5.61063 26.0538 5.80997 26.0103 6.02173L25.1444 10C25.0809 10.2703 25.0714 10.5507 25.1164 10.8247C25.1615 11.0987 25.2602 11.3609 25.4067 11.5958C25.5533 11.8308 25.7448 12.0338 25.97 12.1929C26.1952 12.3521 26.4495 12.4642 26.7181 12.5228L27.0068 12.6018C27.1538 12.6312 27.3029 12.6489 27.4526 12.6548C27.8423 12.6559 28.2243 12.5457 28.5547 12.3369C28.5814 12.31 28.6379 12.2839 28.6596 12.2528C29.1844 13.8447 29.7093 15.2498 29.8665 15.6484C29.7076 16.4456 28.1072 22.1217 21.4171 22.1217Z" fill="black"/>
<path d="M51.8078 41.2707C51.7986 42.7103 51.2409 44.0909 50.2507 45.1254L51.9658 50.144C52.3493 51.3069 51.8302 52.5389 50.5218 52.9265C49.4164 53.2688 48.2202 52.8349 47.8143 51.6265L46.1649 46.7677H42.9209V51.0328C42.9209 52.4699 41.8836 53.0409 40.665 53.0409C39.5138 53.0409 38.5664 52.2647 38.5664 50.9874V38.0543C38.5664 36.7769 39.4914 35.7737 40.6459 35.7737H46.3537C49.7541 35.7737 51.8078 38.3738 51.8078 41.2707ZM47.4076 41.248C47.3996 40.9139 47.2632 40.5961 47.0273 40.3618C46.7915 40.1276 46.4747 39.9955 46.1441 39.9934H42.8951V42.5498H46.1441C46.8436 42.5498 47.4076 41.909 47.4076 41.248Z" fill="#5446F6"/>
<path d="M49.7771 53.4218C49.2643 53.4306 48.7624 53.2726 48.3452 52.9712C47.9279 52.6698 47.6175 52.2408 47.4597 51.7476L45.8992 47.1461H43.2916V51.0328C43.2916 52.5044 42.2842 53.4193 40.6614 53.4193C39.2282 53.4193 38.1885 52.3967 38.1885 50.9874V38.0543C38.1885 36.5634 39.2648 35.3954 40.639 35.3954H46.3467C48.0661 35.3954 49.5467 36.0109 50.628 37.1764C51.6262 38.2569 52.1818 39.7109 52.1818 41.2707C52.1762 42.7284 51.641 44.1331 50.6779 45.2179L52.3199 50.0203C52.4344 50.3481 52.482 50.696 52.4597 51.0429C52.4374 51.3898 52.3457 51.7285 52.1901 52.0385C51.8807 52.6364 51.3259 53.0795 50.6272 53.2864C50.352 53.374 50.0655 53.4196 49.7771 53.4218ZM42.5404 46.3893H46.4316L48.165 51.5037C48.4229 52.2698 49.2347 52.9282 50.4109 52.5649C50.9241 52.4127 51.3076 52.1108 51.5247 51.6912C51.6335 51.471 51.6971 51.2308 51.7114 50.9851C51.7257 50.7393 51.6904 50.4932 51.6079 50.2617L49.8245 45.0279L49.9867 44.8597C50.9053 43.8939 51.424 42.6097 51.4365 41.2699C51.4365 38.7262 49.6897 36.1513 46.3501 36.1513H40.639C39.6849 36.1513 38.9371 36.9863 38.9371 38.0534V50.9865C38.9371 51.9729 39.6458 52.6616 40.6614 52.6616C41.3643 52.6616 42.5429 52.4497 42.5429 51.0319L42.5404 46.3893ZM46.1413 42.9265H42.5205V39.615H46.1438C47.0321 39.615 47.7816 40.3626 47.7816 41.248C47.7816 42.1335 47.0163 42.9265 46.1438 42.9265H46.1413ZM43.2666 42.1697H46.1413C46.6503 42.1697 47.0305 41.6828 47.0305 41.2447C47.0217 41.0112 46.9246 40.79 46.7591 40.6269C46.5936 40.4639 46.3724 40.3713 46.1413 40.3685H43.2691L43.2666 42.1697Z" fill="black"/>
<path d="M67.4212 52.9946C66.3399 53.2469 65.1197 52.6069 64.826 51.4667L64.307 49.0945H59.1632L58.6416 51.4633C58.3256 52.6263 57.0845 53.22 56.0464 52.9912C55.0316 52.7179 54.1741 51.6685 54.377 50.5055L57.265 37.5716C57.468 36.6827 58.3929 35.7704 59.4759 35.7704H63.9884C65.0947 35.7704 65.9972 36.6592 66.2002 37.5716L69.0882 50.4828C69.3161 51.6264 68.4136 52.744 67.4212 52.9946ZM62.2317 40.0388H61.2385L60.0881 44.8319H63.3829L62.2317 40.0388Z" fill="#5446F6"/>
<path d="M66.9455 53.4277C65.8143 53.4277 64.7471 52.6633 64.4643 51.5617V51.5482L64.0101 49.4729H59.4635L59.0052 51.5667C58.9152 51.8883 58.7619 52.1882 58.5543 52.4483C58.3468 52.7084 58.0893 52.9234 57.7974 53.0804C57.2396 53.3901 56.591 53.4893 55.9675 53.3604L55.95 53.3562C54.8246 53.0526 53.7616 51.851 54.0086 50.4382V50.4214L56.8966 37.4875C57.127 36.4784 58.1776 35.3911 59.4752 35.3911H63.9877C65.3086 35.3911 66.335 36.4574 66.5662 37.4883L69.4551 50.4113C69.7279 51.7913 68.649 53.0736 67.5095 53.3621H67.502C67.3195 53.4049 67.1329 53.4269 66.9455 53.4277ZM65.1904 51.3792C65.4233 52.2714 66.4032 52.8424 67.334 52.6288C68.1416 52.4219 68.9061 51.4986 68.7247 50.5661L65.8376 37.659C65.6762 36.9342 64.9226 36.1521 63.991 36.1521H59.4785C58.5801 36.1521 57.7991 36.9316 57.6327 37.6607L54.7464 50.5829C54.58 51.5659 55.3361 52.4068 56.1372 52.6271C56.959 52.8029 58.012 52.3437 58.2807 51.375L58.863 48.7161H64.609L65.1904 51.3792ZM63.8596 45.2087H59.6116L60.9424 39.6587H62.5229L63.8596 45.2087ZM60.5648 44.4519H62.9072L61.9381 40.4155H61.5339L60.5648 44.4519Z" fill="black"/>
<path d="M73.9191 35.545C74.7759 35.545 75.3407 35.8645 75.7491 36.3859L81.8212 44.2063V37.5522C81.8212 36.5036 82.653 35.545 83.9648 35.545C85.3405 35.545 86.1757 36.5036 86.1757 37.5522V51.0067C86.1757 52.0561 85.3439 53.0375 83.9648 53.0375C83.197 53.0375 82.6339 52.7406 82.2047 52.1966L76.1325 44.3955V51.0101C76.1325 52.0595 75.3007 53.0408 73.9216 53.0408C72.6124 53.0408 71.7781 52.0595 71.7781 51.0101V37.5556C71.7756 36.5036 72.6099 35.545 73.9191 35.545Z" fill="#5446F6"/>
<path d="M83.96 53.4192C83.1099 53.4192 82.4195 53.0829 81.9063 52.4312L76.5046 45.4929V51.0143C76.5046 52.1823 75.5988 53.4234 73.9194 53.4234C73.5816 53.4296 73.246 53.3681 72.9319 53.2424C72.6178 53.1166 72.3315 52.9293 72.0894 52.691C71.65 52.2457 71.4019 51.6432 71.3991 51.0143V37.5598C71.3984 37.2493 71.4593 36.9419 71.5782 36.6556C71.6971 36.3694 71.8715 36.1101 72.0911 35.8931C72.5824 35.4199 73.2384 35.1616 73.9169 35.1741C74.8319 35.1741 75.5239 35.4979 76.0388 36.1639L81.4397 43.1249V37.5522C81.439 37.2418 81.5 36.9343 81.6188 36.6481C81.7377 36.3618 81.9121 36.1025 82.1317 35.8855C82.6238 35.4108 83.2817 35.1524 83.9617 35.1666C85.4356 35.1666 86.5469 36.1925 86.5469 37.5522V51.0067C86.5453 52.1781 85.6386 53.4192 83.96 53.4192ZM75.756 43.3065L82.4936 51.9678C82.867 52.4446 83.3337 52.6675 83.96 52.6675C84.8501 52.6675 85.7966 52.0881 85.7966 51.0151V37.5606C85.7966 36.7517 85.1653 35.9318 83.96 35.9318C82.8105 35.9318 82.1908 36.7727 82.1908 37.5606V45.3171L75.4532 36.6314C75.0839 36.1538 74.5965 35.9318 73.9202 35.9318C72.7707 35.9318 72.151 36.7727 72.151 37.5606V51.0151C72.151 51.8165 72.7707 52.6675 73.9202 52.6675C74.8103 52.6675 75.7568 52.0881 75.7568 51.0151L75.756 43.3065Z" fill="black"/>
<path d="M88.8558 49.573C88.8567 49.3012 88.9026 49.0315 88.9914 48.7749C89.3291 47.7717 90.1643 47.3151 91.0443 47.3151C91.4918 47.3181 91.9324 47.4275 92.3303 47.6347C93.4582 48.1821 94.7674 48.5244 96.6398 48.5244C99.0087 48.5244 99.6185 47.6347 99.6185 46.8131C99.6185 45.6047 98.8282 45.0111 96.6398 45.0111C92.0824 45.0111 89.1486 42.3883 89.1486 38.6933C89.1486 35.3398 91.5409 32.4656 96.6398 32.4656C98.9863 32.4656 100.994 32.9903 102.506 33.8111C102.869 34.0137 103.171 34.3111 103.382 34.6721C103.592 35.0332 103.703 35.4447 103.702 35.8637C103.697 36.2179 103.62 36.5674 103.476 36.8904C103.093 37.7112 102.348 38.2132 101.558 38.2132C101.213 38.2076 100.873 38.1213 100.566 37.9609C99.5503 37.4362 98.355 37.025 96.6173 37.025C94.7874 37.025 93.9997 37.8466 93.9997 38.7135C93.9997 39.694 94.6992 40.4466 96.6398 40.4466C101.631 40.4466 104.514 42.8853 104.514 46.7879C104.514 49.8673 102.352 53.0837 96.8203 53.0837H96.0534C94.2234 53.0837 91.8794 52.6498 90.6608 52.0343C89.7134 51.581 88.8558 50.6914 88.8558 49.573Z" fill="#5446F6"/>
<path d="M96.8211 53.4647H96.0542C94.1127 53.4647 91.7221 52.9963 90.4944 52.3757C89.5245 51.909 88.4823 50.9251 88.4823 49.573C88.4833 49.2606 88.5355 48.9506 88.637 48.6555C88.9997 47.5783 89.8997 46.9367 91.0492 46.9367C91.5547 46.9399 92.0524 47.0629 92.5024 47.2958C93.7118 47.8844 94.9911 48.146 96.6447 48.146C98.7974 48.146 99.2491 47.4211 99.2491 46.8131C99.2491 46.1244 99.0478 45.3895 96.6447 45.3895C94.339 45.3895 92.3693 44.7453 90.9477 43.526C89.5495 42.3269 88.7792 40.6106 88.7792 38.6934C88.7792 36.8551 89.4738 35.2036 90.7348 34.0423C92.1239 32.7633 94.1676 32.0872 96.6406 32.0872C98.9189 32.0872 101.009 32.5682 102.684 33.4781C103.107 33.7125 103.46 34.0579 103.705 34.4779C103.95 34.8979 104.078 35.3769 104.077 35.8646C104.072 36.2734 103.984 36.6767 103.817 37.0494C103.372 38.0021 102.507 38.5925 101.559 38.5925C101.155 38.5886 100.758 38.4889 100.399 38.3015C99.591 37.881 98.4339 37.4059 96.6181 37.4059C95.2556 37.4059 94.3723 37.9206 94.3723 38.7161C94.3723 39.615 95.135 40.0708 96.6381 40.0708C99.1543 40.0708 101.244 40.6905 102.68 41.8627C104.117 43.0349 104.889 44.7445 104.889 46.7904C104.889 49.8656 102.776 53.4647 96.8211 53.4647ZM91.0451 47.6935C90.6566 47.6935 89.7142 47.8113 89.3457 48.8969C89.271 49.1132 89.2322 49.3405 89.2309 49.5696C89.2309 50.5694 90.0527 51.3212 90.8221 51.692C91.9675 52.2706 94.2134 52.7011 96.0542 52.7011H96.8211C99.2441 52.7011 101.202 52.0477 102.483 50.8125C103.552 49.7815 104.141 48.3503 104.141 46.7837C104.141 43.0501 101.337 40.8208 96.6406 40.8208C94.0179 40.8208 93.6261 39.4981 93.6261 38.7093C93.6261 37.7557 94.4097 36.6424 96.6206 36.6424C98.5961 36.6424 99.8596 37.1646 100.74 37.6195C100.994 37.7534 101.275 37.8251 101.561 37.8289C102.217 37.8289 102.822 37.4085 103.142 36.7231C103.262 36.4506 103.327 36.1562 103.332 35.8578C103.333 35.5069 103.242 35.1618 103.066 34.8591C102.89 34.5563 102.637 34.307 102.333 34.1373C100.769 33.2872 98.8016 32.8373 96.6464 32.8373C94.3589 32.8373 92.4874 33.4453 91.2397 34.5948C90.1209 35.6257 89.5287 37.041 89.5287 38.6866C89.5287 42.2394 92.3893 44.6259 96.6456 44.6259C98.2068 44.6259 99.9985 44.8782 99.9985 46.8064C99.9985 47.5868 99.5627 48.896 96.6456 48.896C94.8988 48.896 93.4772 48.6009 92.1738 47.971C91.8241 47.7901 91.4371 47.695 91.0442 47.6935H91.0451Z" fill="black"/>
<path d="M107.064 50.7141C107.064 49.5965 107.876 48.5698 109.004 48.5698H110.086L110.108 40.0388H109.003C107.875 40.0388 107.062 39.0356 107.062 37.9172C107.062 36.7988 107.875 35.7737 109.003 35.7737H115.727C116.877 35.7737 117.689 36.7996 117.689 37.9172C117.689 39.0348 116.877 40.0388 115.727 40.0388H114.576L114.553 48.5698H115.727C116.877 48.5698 117.689 49.5965 117.689 50.7141C117.689 51.8317 116.877 52.8349 115.727 52.8349H109.003C107.876 52.8349 107.064 51.8317 107.064 50.7141Z" fill="#5446F6"/>
<path d="M115.729 53.2133H109.004C107.728 53.2133 106.69 52.0923 106.69 50.7141C106.69 49.3232 107.728 48.1914 109.004 48.1914H109.714L109.735 40.4172H109.004C107.728 40.4172 106.69 39.2955 106.69 37.9172C106.69 36.5264 107.728 35.3945 109.004 35.3945H115.729C117.017 35.3945 118.065 36.5255 118.065 37.9172C118.065 39.3089 117.039 40.4172 115.729 40.4172H114.954L114.934 48.1914H115.732C117.02 48.1914 118.069 49.3232 118.069 50.7141C118.069 52.1049 117.039 53.2133 115.729 53.2133ZM109.004 48.9482C108.037 48.9482 107.438 49.8648 107.438 50.7141C107.438 51.6752 108.141 52.4564 109.004 52.4564H115.729C116.509 52.4564 117.317 51.8047 117.317 50.7141C117.317 49.8648 116.709 48.9482 115.729 48.9482H114.18L114.204 39.6604H115.729C116.509 39.6604 117.317 39.0087 117.317 37.9172C117.317 37.0679 116.709 36.1513 115.729 36.1513H109.004C108.037 36.1513 107.438 37.0671 107.438 37.9172C107.438 38.8784 108.141 39.6604 109.004 39.6604H110.485L110.463 48.9482H109.004Z" fill="black"/>
<path d="M128.07 48.9802C128.995 48.9802 129.627 48.8667 130.011 48.5698V45.9697H129.492C128.364 45.9697 127.439 45.308 127.439 44.0306C127.439 42.7533 128.364 42.0007 129.492 42.0007H132.357C133.576 42.0007 134.298 42.8416 134.298 44.076V49.8017C134.303 50.0678 134.251 50.3319 134.145 50.5758C134.04 50.8198 133.884 51.0379 133.688 51.2153C131.996 52.607 130.169 53.109 127.98 53.109C123.941 53.109 120.398 50.0977 120.398 46.1749V42.7079C120.398 38.6715 123.874 35.4761 127.98 35.4761C129.81 35.4761 131.319 35.9806 132.605 36.6391C133.779 37.2328 134.162 38.6463 133.485 39.7185C133.227 40.1406 132.825 40.4515 132.354 40.5913C131.883 40.731 131.378 40.6897 130.936 40.4753C129.739 39.9051 129.063 39.6091 128.07 39.6091C126.31 39.6091 124.731 41.0227 124.731 42.7566V46.1329C124.731 47.7945 126.356 48.9802 128.07 48.9802Z" fill="#5446F6"/>
<path d="M127.98 53.4874C125.939 53.4993 123.964 52.7557 122.427 51.3969C120.877 50.0111 120.024 48.1569 120.024 46.1749V42.7078C120.024 38.5117 123.593 35.0985 127.98 35.0985C129.63 35.0985 131.199 35.4921 132.775 36.3027C133.097 36.4605 133.382 36.6859 133.612 36.9638C133.841 37.2418 134.009 37.5659 134.105 37.9147C134.197 38.2522 134.217 38.6053 134.165 38.9512C134.113 39.2971 133.989 39.6281 133.803 39.9228C133.494 40.4192 133.016 40.7841 132.459 40.9487C131.902 41.1132 131.305 41.0659 130.78 40.8158C129.633 40.2684 128.992 39.9842 128.072 39.9842C126.491 39.9842 125.107 41.2783 125.107 42.7533V46.1295C125.107 47.3185 126.24 48.6017 128.072 48.6017C128.82 48.6017 129.319 48.5252 129.638 48.3621V46.3439H129.493C128.041 46.3439 127.066 45.4122 127.066 44.0264C127.066 42.6086 128.064 41.618 129.493 41.618H132.359C133.743 41.618 134.674 42.6044 134.674 44.0718V49.7975C134.678 50.1174 134.614 50.4345 134.487 50.7275C134.36 51.0205 134.172 51.2826 133.937 51.4961L133.926 51.5054C132.26 52.8769 130.426 53.4874 127.98 53.4874ZM127.98 35.8553C124.006 35.8553 120.773 38.9288 120.773 42.7078V46.1749C120.773 47.9408 121.536 49.5898 122.923 50.8293C124.274 52.0377 126.117 52.7306 127.98 52.7306C130.24 52.7306 131.927 52.1739 133.447 50.9268C133.602 50.7852 133.725 50.6113 133.807 50.417C133.889 50.2228 133.929 50.0129 133.923 49.8017V44.076C133.923 43.0131 133.341 42.3791 132.357 42.3791H129.491C128.66 42.3791 127.813 42.8895 127.813 44.0306C127.813 45.1717 128.68 45.5913 129.491 45.5913H130.385V48.7565L130.238 48.87C129.801 49.2063 129.132 49.3586 128.07 49.3586C126.022 49.3586 124.357 47.9097 124.357 46.1295V42.7533C124.357 40.8419 126.057 39.2273 128.07 39.2273C129.151 39.2273 129.886 39.5536 131.095 40.1296C131.455 40.3054 131.866 40.3398 132.249 40.2262C132.633 40.1126 132.961 39.8591 133.17 39.5149C133.301 39.3105 133.388 39.08 133.425 38.8389C133.462 38.5978 133.447 38.3515 133.383 38.1165C133.314 37.8699 133.194 37.6409 133.031 37.4448C132.868 37.2486 132.666 37.0898 132.438 36.9788C130.967 36.222 129.511 35.8553 127.98 35.8553Z" fill="black"/>
<path d="M139.374 35.545C140.232 35.545 140.796 35.8645 141.204 36.3859L147.276 44.2063V37.5522C147.276 36.5036 148.108 35.545 149.42 35.545C150.796 35.545 151.631 36.5036 151.631 37.5522V51.0067C151.631 52.0561 150.799 53.0375 149.42 53.0375C148.653 53.0375 148.089 52.7406 147.66 52.1966L141.588 44.3955V51.0101C141.588 52.0595 140.756 53.0408 139.377 53.0408C138.068 53.0408 137.233 52.0595 137.233 51.0101V37.5556C137.231 36.5036 138.066 35.545 139.374 35.545Z" fill="#5446F6"/>
<path d="M149.415 53.4193C148.566 53.4193 147.874 53.0829 147.361 52.4312L141.96 45.4929V51.0143C141.96 52.1823 141.054 53.4235 139.374 53.4235C139.037 53.4297 138.701 53.3681 138.387 53.2424C138.073 53.1167 137.786 52.9293 137.544 52.6911C137.105 52.2456 136.857 51.6432 136.854 51.0143V37.5598C136.854 37.2493 136.915 36.9419 137.034 36.6556C137.153 36.3694 137.327 36.1101 137.547 35.8932C138.038 35.4196 138.694 35.1612 139.372 35.1742C140.287 35.1742 140.979 35.4979 141.495 36.1639L146.895 43.1174V37.5523C146.895 37.2418 146.956 36.9343 147.075 36.648C147.194 36.3618 147.369 36.1025 147.588 35.8856C148.079 35.4121 148.735 35.1537 149.413 35.1666C150.887 35.1666 151.999 36.1925 151.999 37.5523V51.0067C152 52.1781 151.094 53.4193 149.415 53.4193ZM141.211 43.3066L147.948 51.9679C148.322 52.4447 148.788 52.6675 149.414 52.6675C150.305 52.6675 151.251 52.0881 151.251 51.0152V37.5607C151.251 36.7517 150.62 35.9319 149.414 35.9319C148.265 35.9319 147.645 36.7728 147.645 37.5607V45.3172L140.907 36.6315C140.538 36.1539 140.051 35.9319 139.374 35.9319C138.226 35.9319 137.605 36.7728 137.605 37.5607V51.0152C137.605 51.8165 138.226 52.6675 139.374 52.6675C140.265 52.6675 141.211 52.0881 141.211 51.0152V43.3066Z" fill="black"/>
<path d="M93.4441 46.7383C93.5288 46.7386 93.6128 46.722 93.6911 46.6893C93.7694 46.6567 93.8405 46.6087 93.9004 46.5481C93.9603 46.4875 94.0076 46.4155 94.0398 46.3363C94.072 46.2571 94.0884 46.1722 94.0879 46.0866V43.917C94.0871 43.8086 94.0441 43.7049 93.9684 43.6281C93.8926 43.5514 93.7901 43.5078 93.6829 43.5067H93.1938C93.0865 43.508 92.984 43.5516 92.9082 43.6283C92.8323 43.705 92.7891 43.8086 92.7878 43.917H92.8003V46.0866C92.7999 46.1722 92.8162 46.2571 92.8484 46.3363C92.8806 46.4155 92.928 46.4875 92.9878 46.5481C93.0477 46.6087 93.1189 46.6567 93.1972 46.6893C93.2755 46.722 93.3594 46.7386 93.4441 46.7383Z" fill="white"/>
<path d="M93.444 46.8223C93.2511 46.8219 93.0663 46.7442 92.9301 46.6063C92.7938 46.4684 92.7172 46.2815 92.717 46.0866V44.0011H92.7053V43.917C92.7079 43.7868 92.7601 43.6627 92.8511 43.5705C92.9421 43.4784 93.0648 43.4254 93.1936 43.4226H93.6827C93.8114 43.4254 93.9342 43.4784 94.0252 43.5705C94.1162 43.6627 94.1684 43.7868 94.1709 43.917V46.0866C94.1707 46.2815 94.0941 46.4684 93.9578 46.6063C93.8215 46.7442 93.6368 46.8219 93.444 46.8223ZM92.8825 43.8329V46.0866C92.8825 46.2369 92.9416 46.381 93.0467 46.4873C93.1518 46.5936 93.2944 46.6533 93.4431 46.6533C93.5918 46.6533 93.7344 46.5936 93.8395 46.4873C93.9447 46.381 94.0037 46.2369 94.0037 46.0866V43.917C94.0027 43.831 93.9684 43.7487 93.9083 43.6878C93.8482 43.6269 93.767 43.5921 93.6818 43.5908H93.1928C93.1221 43.5919 93.0538 43.6161 92.9979 43.6598C92.942 43.7034 92.9015 43.7642 92.8825 43.8329Z" fill="black"/>
<path d="M94.3981 43.9171V46.6777C94.3977 46.7633 94.4142 46.8481 94.4464 46.9272C94.4786 47.0063 94.5261 47.0782 94.5859 47.1387C94.6458 47.1992 94.7169 47.2471 94.7951 47.2797C94.8734 47.3123 94.9572 47.3289 95.0419 47.3286H95.1375C95.2222 47.3289 95.3061 47.3123 95.3843 47.2797C95.4626 47.2471 95.5337 47.1992 95.5935 47.1387C95.6534 47.0782 95.7008 47.0063 95.733 46.9272C95.7653 46.8481 95.7817 46.7633 95.7814 46.6777V44.9539C95.7072 44.8563 95.6508 44.7461 95.615 44.6285L95.5069 44.3022C95.4666 44.1767 95.4597 44.0426 95.487 43.9136C95.5143 43.7846 95.5748 43.6651 95.6624 43.5672C95.6857 43.5428 95.7098 43.5193 95.734 43.4949C95.7034 43.4209 95.652 43.3576 95.5863 43.3127C95.5205 43.2679 95.4431 43.2435 95.3638 43.2426H94.7815C94.6743 43.2435 94.5717 43.2869 94.4958 43.3635C94.4198 43.4401 94.3767 43.5437 94.3756 43.6522H94.3997L94.3981 43.9171Z" fill="white"/>
<path d="M95.1377 47.4127H95.042C94.8493 47.4124 94.6645 47.3349 94.5282 47.1971C94.3919 47.0594 94.3152 46.8726 94.315 46.6777V43.7345H94.2909V43.6504C94.2937 43.5203 94.3461 43.3962 94.4373 43.3042C94.5284 43.2122 94.6512 43.1594 94.78 43.1568H95.3623C95.458 43.158 95.5512 43.1875 95.6306 43.2415C95.71 43.2956 95.7719 43.372 95.8089 43.4612L95.8306 43.5134L95.7191 43.6261C95.642 43.7127 95.589 43.8183 95.5653 43.9323C95.5417 44.0463 95.5482 44.1646 95.5843 44.2752L95.6917 44.6007C95.7257 44.7095 95.7781 44.8116 95.8464 44.9025L95.863 44.9244V46.6769C95.863 46.8716 95.7867 47.0583 95.6507 47.1963C95.5148 47.3342 95.3303 47.412 95.1377 47.4127ZM94.4722 43.5672H94.4847V46.6785C94.4849 46.8288 94.5441 46.9728 94.6492 47.0791C94.7542 47.1853 94.8967 47.2451 95.0453 47.2453H95.141C95.2897 47.2453 95.4323 47.1856 95.5374 47.0793C95.6426 46.973 95.7016 46.8289 95.7016 46.6785V44.9816C95.6285 44.8818 95.5723 44.7704 95.5353 44.652L95.4288 44.3291C95.3831 44.1897 95.375 44.0406 95.4051 43.8969C95.4352 43.7533 95.5025 43.6204 95.6001 43.5117L95.6326 43.4789C95.6041 43.4327 95.5645 43.3945 95.5176 43.3677C95.4706 43.341 95.4178 43.3266 95.3639 43.3259H94.7817C94.7107 43.3264 94.6419 43.3503 94.5855 43.3938C94.5291 43.4373 94.4882 43.4982 94.4689 43.5672H94.4722Z" fill="black"/>
<path d="M98.8581 44.0735L99.0968 44.3022V43.4748C99.096 43.3696 99.0542 43.2689 98.9806 43.1945C98.907 43.1201 98.8075 43.0779 98.7034 43.077H98.1211C98.0152 43.0788 97.9142 43.123 97.8405 43.1999C97.7667 43.2769 97.7261 43.3803 97.7277 43.4874V43.643L98.1436 43.727C98.4057 43.7832 98.6507 43.902 98.8581 44.0735Z" fill="white"/>
<path d="M99.1801 44.4981L98.8025 44.1357C98.6058 43.9731 98.3737 43.8601 98.1254 43.806L97.6421 43.7085V43.4831C97.6406 43.3537 97.6899 43.2289 97.7793 43.1362C97.8686 43.0435 97.9907 42.9905 98.1187 42.9887H98.701C98.8269 42.9904 98.9471 43.0417 99.0361 43.1317C99.1251 43.2217 99.1759 43.3433 99.1776 43.4705L99.1801 44.4981ZM97.8085 43.5731L98.1595 43.6437C98.4366 43.7032 98.6952 43.8299 98.9131 44.0129L99.0113 44.1071V43.4747C99.0102 43.3919 98.9771 43.3127 98.9192 43.2541C98.8612 43.1955 98.7829 43.1622 98.701 43.1611H98.1187C98.0349 43.163 97.9552 43.1985 97.8971 43.2596C97.839 43.3207 97.8071 43.4026 97.8085 43.4873V43.5731Z" fill="black"/>
<path d="M96.3537 43.3377L97.4276 43.5672V43.3503C97.4258 43.2393 97.3815 43.1334 97.3038 43.0549C97.2262 42.9764 97.1214 42.9316 97.0117 42.9298H96.4627C96.3542 42.9298 96.25 42.9726 96.1723 43.0491C96.0946 43.1256 96.0496 43.2297 96.0468 43.3394C96.1477 43.3156 96.2525 43.3151 96.3537 43.3377Z" fill="white"/>
<path d="M97.5107 43.6707L96.3362 43.4184C96.2459 43.3966 96.1519 43.3966 96.0617 43.4184L95.9552 43.4428L95.961 43.3318C95.9665 43.2012 96.0214 43.0777 96.1142 42.9866C96.207 42.8956 96.3308 42.844 96.4601 42.8424H97.0091C97.1408 42.8445 97.2665 42.8984 97.3596 42.9926C97.4528 43.0867 97.506 43.2138 97.5082 43.3469L97.5107 43.6707ZM96.3711 43.2561L97.3443 43.4638V43.3503C97.3428 43.2616 97.3073 43.1769 97.2452 43.1141C97.1831 43.0514 97.0994 43.0154 97.0116 43.0139H96.4626C96.3937 43.014 96.3265 43.0358 96.2703 43.0761C96.2141 43.1165 96.1718 43.1735 96.149 43.2393C96.2235 43.2339 96.2983 43.2396 96.3711 43.2561Z" fill="black"/>
<path d="M98.6561 44.2904C98.4908 44.1512 98.2939 44.0559 98.083 44.0129L96.2946 43.6278C96.2168 43.6113 96.1361 43.6161 96.0607 43.6415C95.9853 43.6669 95.9179 43.7121 95.8654 43.7724C95.8127 43.832 95.7761 43.9043 95.7594 43.9825C95.7426 44.0606 95.7462 44.1418 95.7698 44.2181L95.8771 44.5435C95.9153 44.6672 95.9798 44.7809 96.066 44.8767C96.1522 44.9726 96.258 45.0483 96.3761 45.0985L97.9624 45.7973C97.9912 45.7916 98.021 45.7943 98.0484 45.805C98.0758 45.8157 98.0996 45.834 98.1171 45.8578L99.1086 47.2588C99.1203 47.2744 99.1286 47.2922 99.1332 47.3112C99.1377 47.3303 99.1383 47.35 99.135 47.3693C99.1316 47.3885 99.1244 47.4069 99.1137 47.4232C99.103 47.4395 99.0891 47.4534 99.0728 47.464C99.0476 47.4791 99.019 47.4875 98.9896 47.4884H98.9655C98.8128 47.5884 98.6351 47.6426 98.4531 47.6448H98.3575C98.224 47.6447 98.092 47.6156 97.9706 47.5594C97.8492 47.5033 97.7412 47.4214 97.6538 47.3193C97.5851 47.4996 97.4639 47.6545 97.3064 47.7638C97.1489 47.8731 96.9623 47.9315 96.7712 47.9315H96.6764C96.4847 47.933 96.2972 47.8748 96.1393 47.7648C95.9814 47.6549 95.8608 47.4985 95.7939 47.3168C95.7063 47.4186 95.5982 47.5002 95.4768 47.5564C95.3554 47.6125 95.2236 47.6418 95.0902 47.6422H94.9912C94.7571 47.6429 94.5312 47.5557 94.357 47.3976C94.1829 47.2394 94.0731 47.0216 94.0488 46.7862C93.9642 46.8714 93.8638 46.9387 93.7532 46.9842C93.6427 47.0296 93.5243 47.0524 93.405 47.0511C93.2227 47.051 93.0444 46.9966 92.8926 46.8947C92.9042 47.353 92.9874 48.3419 93.6412 49.0651C94.2018 49.6913 95.0367 50.0046 96.1457 50.0052C98.8907 50.0052 99.3531 48.8843 99.6875 48.0762C99.8189 47.7751 100.187 46.3044 100.164 45.7611L98.6561 44.2904Z" fill="white"/>
<path d="M96.1556 50.0893C95.0268 50.0893 94.1593 49.7638 93.5895 49.1214C93.1079 48.5899 92.8409 47.8214 92.8168 46.8972L92.8118 46.7349L92.9457 46.8249C93.0842 46.9172 93.2464 46.9666 93.4123 46.967C93.5203 46.9676 93.6272 46.9467 93.7272 46.9054C93.8271 46.8642 93.918 46.8033 93.9946 46.7265L94.1185 46.6012L94.136 46.7778C94.1575 46.9926 94.2575 47.1916 94.4164 47.3359C94.5752 47.4802 94.7816 47.5595 94.9952 47.5582H95.0909C95.2124 47.5576 95.3324 47.5309 95.4428 47.4797C95.5533 47.4285 95.6517 47.354 95.7314 47.2613L95.8237 47.1545L95.8719 47.2874C95.9336 47.4527 96.0438 47.5949 96.1877 47.695C96.3316 47.7951 96.5024 47.8483 96.6771 47.8474H96.7719C96.9468 47.8479 97.1176 47.7944 97.2615 47.694C97.4054 47.5936 97.5156 47.4512 97.5771 47.2857L97.6279 47.1587L97.7169 47.2613C97.7965 47.3544 97.895 47.429 98.0056 47.4802C98.1162 47.5314 98.2365 47.558 98.3582 47.5582H98.4538C98.6206 47.5561 98.7834 47.5059 98.923 47.4135L98.9429 47.4017H98.9903C99.0048 47.4012 99.0188 47.3968 99.0311 47.3891C99.0434 47.3793 99.0517 47.3652 99.0544 47.3496C99.0556 47.3426 99.0553 47.3353 99.0536 47.3284C99.0519 47.3214 99.0488 47.3149 99.0444 47.3092L98.0521 45.9066C98.0438 45.8959 98.0327 45.8877 98.0201 45.883C98.0074 45.8782 97.9938 45.8771 97.9805 45.8797L97.9556 45.8856L96.3452 45.175C96.2161 45.1205 96.1003 45.0382 96.0059 44.9338C95.9115 44.8293 95.8408 44.7053 95.7987 44.5704L95.6914 44.245C95.663 44.1544 95.6585 44.0578 95.6784 43.9649C95.6982 43.872 95.7418 43.786 95.8046 43.7153C95.8675 43.6446 95.9475 43.5918 96.0368 43.5619C96.1261 43.5321 96.2215 43.5264 96.3136 43.5454L98.1012 43.9313C98.3265 43.9763 98.5369 44.0785 98.7125 44.2282L100.251 45.7225V45.7561C100.276 46.3094 99.9053 47.7928 99.7672 48.1106C99.4245 48.9448 98.9513 50.0893 96.1556 50.0893ZM92.9889 47.041C93.0347 47.8575 93.2834 48.5353 93.7126 49.0079C94.2541 49.6142 95.0759 49.9211 96.1556 49.9211C98.8448 49.9211 99.2931 48.8363 99.6209 48.0442C99.7481 47.7507 100.099 46.3464 100.092 45.7981L98.6027 44.3518C98.4483 44.225 98.2655 44.1384 98.0704 44.0995L96.2812 43.7135C96.2176 43.7011 96.1519 43.7056 96.0905 43.7265C96.0292 43.7474 95.9742 43.784 95.9311 43.8328C95.8879 43.8816 95.858 43.9409 95.8443 44.0049C95.8306 44.0689 95.8335 44.1354 95.8528 44.1979L95.9601 44.5217C95.9946 44.634 96.0529 44.7374 96.1311 44.8246C96.2093 44.9117 96.3053 44.9806 96.4126 45.0262L97.9797 45.7166C98.0199 45.7137 98.0601 45.7211 98.0967 45.738C98.1333 45.7549 98.1651 45.7808 98.1893 45.8133L99.1808 47.2134C99.1987 47.2371 99.2116 47.2642 99.2187 47.2932C99.2259 47.3221 99.2271 47.3521 99.2224 47.3816C99.2175 47.413 99.2062 47.4431 99.1891 47.4699C99.1721 47.4967 99.1497 47.5196 99.1234 47.5371L99.1143 47.5422C99.0776 47.5636 99.036 47.5751 98.9937 47.5758C98.8326 47.6765 98.6474 47.7306 98.458 47.7322H98.3623C98.1113 47.7328 97.8691 47.6383 97.6836 47.4673C97.5951 47.6339 97.4635 47.773 97.3027 47.8696C97.1419 47.9662 96.9581 48.0167 96.7711 48.0156H96.6763C96.4892 48.0161 96.3055 47.9649 96.1452 47.8675C95.9848 47.7701 95.8538 47.6303 95.7663 47.4631C95.5805 47.6318 95.3398 47.7255 95.09 47.7263H94.9911C94.7623 47.7274 94.5398 47.6511 94.3589 47.5096C94.178 47.368 94.0492 47.1693 93.9929 46.9451C93.8222 47.0701 93.6164 47.1367 93.4057 47.1352C93.2603 47.1345 93.1168 47.1024 92.9848 47.041H92.9889Z" fill="black"/>
<path d="M96.7711 47.6061C96.8557 47.6065 96.9396 47.5899 97.0178 47.5573C97.0961 47.5247 97.1672 47.4768 97.2271 47.4163C97.2869 47.3558 97.3343 47.2839 97.3666 47.2048C97.3988 47.1256 97.4152 47.0409 97.4149 46.9553V45.8823L96.2462 45.3777C96.1747 45.3449 96.1069 45.3043 96.0441 45.2567V46.6795H96.0316V46.957C96.0313 47.0426 96.0477 47.1275 96.08 47.2066C96.1123 47.2858 96.1598 47.3577 96.2197 47.4182C96.2797 47.4788 96.3509 47.5267 96.4292 47.5592C96.5076 47.5917 96.5916 47.6083 96.6763 47.6078L96.7711 47.6061Z" fill="white"/>
<path d="M96.7713 47.6902H96.6764C96.4836 47.69 96.2987 47.6125 96.1623 47.4747C96.0259 47.337 95.949 47.1502 95.9486 46.9552V46.5936H95.9611V45.08L96.0958 45.1893C96.1543 45.2327 96.217 45.2699 96.283 45.3003L97.4982 45.8267V46.9552C97.498 47.1501 97.4213 47.3369 97.2851 47.4747C97.1488 47.6125 96.964 47.69 96.7713 47.6902ZM96.115 46.7652V46.9586C96.1152 47.109 96.1744 47.2531 96.2797 47.3594C96.385 47.4657 96.5277 47.5254 96.6764 47.5254H96.7713C96.9199 47.5254 97.0625 47.4657 97.1677 47.3594C97.2728 47.2531 97.3319 47.1089 97.3319 46.9586V45.9411L96.2139 45.4559L96.1308 45.4113V46.7652H96.115Z" fill="black"/>
<path d="M98.4647 47.3429C98.5687 47.3445 98.6713 47.3196 98.7633 47.2706L97.9315 46.1009C97.9199 46.1009 97.9074 46.0883 97.8957 46.0883L97.7294 46.0159V46.6887C97.729 46.7743 97.7455 46.8591 97.7777 46.9382C97.8099 47.0174 97.8573 47.0894 97.9172 47.1499C97.977 47.2105 98.0481 47.2585 98.1264 47.2912C98.2046 47.3239 98.2885 47.3406 98.3732 47.3404L98.4647 47.3429Z" fill="white"/>
<path d="M98.4647 47.427H98.3691C98.1763 47.4265 97.9915 47.3489 97.8552 47.2109C97.719 47.073 97.6423 46.8861 97.6421 46.6912V45.889L97.9158 46.0075C97.9247 46.0096 97.9333 46.0127 97.9415 46.0168H97.9706L98.8856 47.2967L98.8024 47.3429C98.6988 47.3994 98.5825 47.4284 98.4647 47.427ZM97.8084 46.1438V46.6912C97.8087 46.8415 97.8678 46.9856 97.9729 47.092C98.0779 47.1984 98.2204 47.2584 98.3691 47.2588H98.4647C98.5211 47.2589 98.5771 47.2506 98.6311 47.2344L97.8717 46.1724L97.8084 46.1438Z" fill="black"/>
<path d="M100.469 45.6165L99.4189 44.5923V43.4747C99.4186 43.2894 99.3457 43.1118 99.2162 42.9808C99.0866 42.8498 98.9109 42.7761 98.7276 42.7759H98.1454C97.9623 42.7774 97.787 42.8507 97.6563 42.9802C97.5938 42.87 97.5035 42.7784 97.3947 42.7149C97.2858 42.6514 97.1623 42.6182 97.0366 42.6187H96.4884C96.3418 42.6198 96.1991 42.6669 96.08 42.7533C95.9608 42.8397 95.8711 42.9613 95.823 43.1013C95.6979 42.9999 95.5425 42.9445 95.3821 42.9441H94.7999C94.6623 42.9453 94.5282 42.9871 94.4138 43.0643C94.2994 43.1416 94.2098 43.2509 94.1561 43.3788C94.0314 43.2669 93.8694 43.2068 93.7027 43.2107H93.2136C93.0271 43.2111 92.8484 43.2862 92.7165 43.4195C92.5847 43.5528 92.5104 43.7335 92.5099 43.9221V46.0916C92.508 46.2671 92.5578 46.4393 92.653 46.586C92.6414 46.6466 92.4983 48.1653 93.464 49.2626C94.0729 49.9497 94.9912 50.2995 96.1832 50.2995C98.8907 50.2995 99.5586 49.2626 99.9994 48.1896C100.119 47.8398 100.537 46.2488 100.477 45.6821L100.469 45.6165ZM97.7237 43.4831C97.7221 43.376 97.7627 43.2726 97.8364 43.1957C97.9102 43.1187 98.0111 43.0745 98.1171 43.0727H98.6993C98.8034 43.0736 98.903 43.1158 98.9766 43.1902C99.0502 43.2646 99.0919 43.3653 99.0928 43.4705V44.3021L98.8541 44.0734C98.6468 43.9006 98.4014 43.7806 98.1387 43.7236L97.7228 43.6395L97.7237 43.4831ZM96.4593 42.9281H97.0083C97.1181 42.9298 97.2229 42.9747 97.3005 43.0532C97.3781 43.1317 97.4225 43.2376 97.4242 43.3486V43.5655L96.3504 43.3359C96.2485 43.3124 96.1428 43.3124 96.0409 43.3359C96.0442 43.2259 96.09 43.1215 96.1685 43.0453C96.2471 42.969 96.3521 42.927 96.461 42.9281H96.4593ZM94.7783 43.2418H95.3605C95.4398 43.2426 95.5172 43.267 95.583 43.3118C95.6488 43.3567 95.7001 43.42 95.7307 43.494C95.7065 43.5184 95.6824 43.542 95.6591 43.5664C95.5715 43.6642 95.511 43.7837 95.4837 43.9127C95.4564 44.0418 95.4633 44.1758 95.5036 44.3013L95.6117 44.6276C95.6475 44.7452 95.7039 44.8554 95.7781 44.953V46.6769C95.7784 46.7624 95.762 46.8472 95.7297 46.9263C95.6975 47.0054 95.6501 47.0773 95.5902 47.1378C95.5304 47.1983 95.4593 47.2463 95.381 47.2789C95.3028 47.3114 95.2189 47.3281 95.1343 47.3277H95.0386C94.954 47.3281 94.8701 47.3114 94.7918 47.2789C94.7136 47.2463 94.6425 47.1983 94.5826 47.1378C94.5228 47.0773 94.4754 47.0054 94.4431 46.9263C94.4109 46.8472 94.3945 46.7624 94.3948 46.6769V43.6496H94.3707C94.3722 43.5409 94.416 43.4372 94.4926 43.3609C94.5692 43.2845 94.6724 43.2418 94.7799 43.2418H94.7783ZM92.7819 43.9145C92.7832 43.8061 92.8264 43.7024 92.9023 43.6258C92.9781 43.5491 93.0806 43.5054 93.1879 43.5041H93.677C93.7842 43.5052 93.8867 43.5488 93.9625 43.6256C94.0382 43.7023 94.0812 43.8061 94.082 43.9145V46.084C94.082 46.2566 94.0142 46.4222 93.8935 46.5442C93.7727 46.6663 93.609 46.7349 93.4382 46.7349C93.2675 46.7349 93.1037 46.6663 92.983 46.5442C92.8622 46.4222 92.7944 46.2566 92.7944 46.084V43.9145H92.7819ZM99.6859 48.0736C99.3531 48.8817 98.8865 50.0026 96.1441 50.0026C95.035 50.0026 94.2002 49.6893 93.6395 49.0625C92.9832 48.3393 92.9001 47.3504 92.8909 46.8921C93.0428 46.9941 93.221 47.0485 93.4033 47.0485C93.5226 47.0498 93.641 47.0271 93.7516 46.9816C93.8621 46.9361 93.9626 46.8688 94.0471 46.7837C94.0709 47.0197 94.1807 47.2384 94.3552 47.3972C94.5297 47.5559 94.7565 47.6432 94.9912 47.6422H95.0869C95.2203 47.6417 95.3521 47.6125 95.4735 47.5563C95.5948 47.5002 95.7029 47.4185 95.7906 47.3168C95.8575 47.4984 95.9781 47.6548 96.1359 47.7648C96.2938 47.8748 96.4814 47.933 96.6731 47.9315H96.7679C96.9593 47.9313 97.1461 47.8725 97.3036 47.7627C97.4612 47.653 97.5821 47.4975 97.6505 47.3168C97.7378 47.4188 97.8459 47.5007 97.9673 47.5569C98.0887 47.613 98.2206 47.6421 98.3542 47.6422H98.4498C98.6318 47.6401 98.8094 47.5858 98.9622 47.4858H98.9863C99.0157 47.485 99.0443 47.4766 99.0695 47.4614C99.0858 47.4508 99.0997 47.4369 99.1104 47.4206C99.121 47.4043 99.1283 47.386 99.1317 47.3667C99.135 47.3475 99.1344 47.3277 99.1299 47.3087C99.1253 47.2897 99.1169 47.2718 99.1053 47.2562L98.1154 45.8578C98.0979 45.834 98.0741 45.8157 98.0467 45.805C98.0193 45.7942 97.9895 45.7916 97.9607 45.7973L96.3745 45.0985C96.2564 45.0482 96.1505 44.9725 96.0643 44.8767C95.9781 44.7808 95.9136 44.6671 95.8754 44.5435L95.7681 44.2181C95.7445 44.1418 95.7409 44.0606 95.7577 43.9824C95.7745 43.9043 95.811 43.8319 95.8638 43.7724C95.9162 43.712 95.9836 43.6669 96.059 43.6414C96.1344 43.616 96.2152 43.6113 96.293 43.6277L98.0813 44.0129C98.2922 44.0558 98.4892 44.1512 98.6544 44.2904L100.168 45.7611C100.194 46.3043 99.8248 47.7751 99.6934 48.0761L99.6859 48.0736ZM96.0259 46.9527V46.6752H96.0384V45.2549C96.1013 45.3026 96.169 45.3432 96.2406 45.376L97.4092 45.8805V46.9535C97.4096 47.0391 97.3931 47.1239 97.3609 47.203C97.3287 47.2821 97.2813 47.354 97.2214 47.4145C97.1616 47.475 97.0904 47.5229 97.0122 47.5555C96.9339 47.5881 96.8501 47.6047 96.7654 47.6044H96.6706C96.5008 47.6037 96.3382 47.535 96.2184 47.4133C96.0987 47.2916 96.0316 47.1269 96.0318 46.9552L96.0259 46.9527ZM97.7195 46.6869V46.0142L97.8859 46.0865C97.8975 46.0865 97.91 46.0992 97.9216 46.0992L98.7534 47.2689C98.6615 47.3179 98.5588 47.3428 98.4548 47.3412H98.3591C98.1898 47.339 98.0283 47.2692 97.9096 47.1472C97.7909 47.0251 97.7246 46.8606 97.7253 46.6895L97.7195 46.6869Z" fill="black"/>
<path d="M96.1749 50.3786C94.9555 50.3786 94.0197 50.0203 93.3942 49.314C92.4617 48.2553 92.5374 46.8484 92.5624 46.6021C92.4677 46.4474 92.4186 46.2685 92.421 46.0866V43.9171C92.4212 43.7061 92.5042 43.5039 92.6517 43.3548C92.7992 43.2057 92.9992 43.1218 93.2079 43.1216H93.697C93.8477 43.1197 93.9956 43.163 94.122 43.246C94.1908 43.1275 94.289 43.0292 94.4069 42.9608C94.5247 42.8924 94.6582 42.8562 94.7941 42.8558H95.3764C95.5188 42.8563 95.6584 42.8955 95.7806 42.9693C95.8466 42.8376 95.9473 42.7269 96.0716 42.6494C96.196 42.572 96.3391 42.5308 96.4851 42.5304H97.0341C97.1575 42.5308 97.279 42.5599 97.3895 42.6153C97.4999 42.6707 97.5963 42.751 97.6713 42.8499C97.8071 42.7459 97.9725 42.689 98.1429 42.6876H98.7252C98.9304 42.6881 99.1271 42.7707 99.2723 42.9174C99.4174 43.0642 99.4991 43.263 99.4996 43.4705V44.5561L100.549 45.5812V45.6729C100.608 46.2615 100.181 47.8811 100.068 48.2124C99.6185 49.3106 98.9473 50.3786 96.1749 50.3786ZM93.2054 43.2897C93.0409 43.29 92.8832 43.3561 92.7668 43.4737C92.6505 43.5913 92.5851 43.7507 92.5848 43.9171V46.0866C92.5827 46.2458 92.6279 46.4019 92.7146 46.5348L92.7337 46.5634L92.7263 46.5979C92.7263 46.6113 92.5599 48.1157 93.5181 49.2047C94.1104 49.8774 95.0045 50.2137 96.1749 50.2137C98.845 50.2137 99.4863 49.1971 99.918 48.1561C100.051 47.765 100.445 46.2152 100.389 45.6888V45.656L99.3391 44.631V43.4747C99.3388 43.3118 99.2747 43.1556 99.1607 43.0403C99.0467 42.9251 98.8922 42.8603 98.731 42.86H98.1487C97.9877 42.8613 97.8335 42.9259 97.7187 43.04L97.6405 43.119L97.5873 43.0215C97.5317 42.9245 97.4519 42.844 97.3558 42.7881C97.2598 42.7321 97.1508 42.7027 97.04 42.7028H96.4885C96.3587 42.7033 96.2323 42.7446 96.1268 42.821C96.0213 42.8974 95.9419 43.0051 95.8996 43.1291L95.8605 43.241L95.769 43.167C95.6584 43.0776 95.5212 43.0287 95.3797 43.0282H94.7974C94.6764 43.0299 94.5584 43.0671 94.4577 43.1351C94.357 43.2032 94.278 43.2992 94.2301 43.4117L94.1844 43.5193L94.1012 43.4411C93.9917 43.3433 93.8497 43.2908 93.7036 43.2939L93.2054 43.2897ZM96.1558 50.0893C95.027 50.0893 94.1594 49.7639 93.5897 49.1214C93.1081 48.59 92.841 47.8214 92.8169 46.8972L92.8119 46.7349L92.9459 46.8249C93.0844 46.9172 93.2466 46.9666 93.4125 46.967C93.5204 46.9676 93.6274 46.9467 93.7273 46.9054C93.8272 46.8642 93.9181 46.8034 93.9947 46.7265L94.1187 46.6012L94.1361 46.7778C94.1577 46.9926 94.2576 47.1916 94.4165 47.3359C94.5754 47.4802 94.7818 47.5595 94.9954 47.5582H95.0911C95.2126 47.5576 95.3326 47.5309 95.443 47.4797C95.5535 47.4285 95.6518 47.3541 95.7315 47.2613L95.8239 47.1545L95.8721 47.2874C95.9337 47.4527 96.0439 47.5949 96.1879 47.695C96.3318 47.7951 96.5026 47.8483 96.6773 47.8474H96.7721C96.947 47.848 97.1178 47.7944 97.2617 47.694C97.4056 47.5936 97.5157 47.4512 97.5773 47.2857L97.628 47.1587L97.717 47.2613C97.7967 47.3544 97.8951 47.429 98.0058 47.4802C98.1164 47.5315 98.2367 47.558 98.3584 47.5582H98.454C98.6208 47.5561 98.7836 47.5059 98.9232 47.4135L98.9431 47.4018H98.9905C99.005 47.4012 99.019 47.3969 99.0313 47.3891C99.0436 47.3793 99.0519 47.3652 99.0546 47.3496C99.0558 47.3426 99.0555 47.3353 99.0538 47.3284C99.0521 47.3214 99.049 47.3149 99.0446 47.3093L98.0523 45.9066C98.0439 45.8959 98.0329 45.8878 98.0202 45.883C98.0076 45.8783 97.9939 45.8771 97.9807 45.8797L97.9558 45.8856L96.3454 45.175C96.2163 45.1205 96.1005 45.0382 96.0061 44.9338C95.9117 44.8293 95.841 44.7053 95.7989 44.5704L95.6916 44.245C95.6632 44.1544 95.6587 44.0579 95.6786 43.9649C95.6984 43.872 95.7419 43.786 95.8048 43.7153C95.8677 43.6446 95.9477 43.5918 96.037 43.562C96.1262 43.5321 96.2217 43.5264 96.3138 43.5454L98.1013 43.9313C98.3267 43.9763 98.5371 44.0785 98.7127 44.2282L100.253 45.7242V45.7578C100.278 46.3111 99.9072 47.7919 99.7699 48.1123C99.4239 48.9457 98.9506 50.0893 96.1558 50.0893ZM92.9891 47.041C93.0349 47.8575 93.2836 48.5353 93.7128 49.0079C94.2543 49.6142 95.0761 49.9211 96.1558 49.9211C98.845 49.9211 99.2933 48.8363 99.621 48.0442C99.7483 47.7524 100.099 46.3481 100.093 45.7998L98.6021 44.3526C98.4481 44.2257 98.2655 44.139 98.0706 44.1004L96.2814 43.7144C96.2178 43.702 96.1521 43.7064 96.0907 43.7273C96.0293 43.7482 95.9744 43.7849 95.9312 43.8337C95.8881 43.8825 95.8582 43.9418 95.8444 44.0058C95.8307 44.0698 95.8337 44.1363 95.853 44.1988L95.9603 44.5225C95.9947 44.6349 96.0531 44.7383 96.1313 44.8254C96.2094 44.9126 96.3055 44.9814 96.4128 45.027L97.9799 45.7174C98.02 45.7146 98.0602 45.722 98.0969 45.7388C98.1335 45.7557 98.1653 45.7816 98.1895 45.8141L99.181 47.2142C99.1989 47.2379 99.2118 47.2651 99.2189 47.294C99.2261 47.3229 99.2273 47.353 99.2226 47.3824C99.2177 47.4139 99.2063 47.4439 99.1893 47.4707C99.1723 47.4975 99.1499 47.5204 99.1236 47.538L99.1145 47.543C99.0777 47.5644 99.0362 47.576 98.9939 47.5767C98.8328 47.6774 98.6475 47.7315 98.4582 47.7331H98.3625C98.1115 47.7337 97.8693 47.6392 97.6838 47.4682C97.5952 47.6346 97.4635 47.7735 97.3027 47.87C97.1419 47.9664 96.9582 48.0168 96.7713 48.0156H96.6765C96.4894 48.0161 96.3057 47.9649 96.1453 47.8675C95.985 47.7702 95.8539 47.6303 95.7665 47.4631C95.5807 47.6318 95.34 47.7255 95.0902 47.7263H94.9912C94.7625 47.7274 94.5399 47.6511 94.3591 47.5096C94.1782 47.368 94.0493 47.1693 93.9931 46.9452C93.8224 47.0701 93.6166 47.1367 93.4058 47.1352C93.2605 47.1345 93.117 47.1024 92.9849 47.041H92.9891ZM96.7754 47.6902H96.6806C96.4878 47.69 96.3029 47.6125 96.1665 47.4747C96.0301 47.337 95.9532 47.1502 95.9528 46.9552V46.5937H95.9653V45.08L96.1 45.1893C96.1585 45.2327 96.2212 45.2699 96.2872 45.3003L97.5024 45.8267V46.9552C97.5023 47.0521 97.4833 47.1479 97.4465 47.2373C97.4096 47.3267 97.3557 47.4079 97.2878 47.4762C97.2199 47.5445 97.1393 47.5985 97.0506 47.6352C96.962 47.672 96.8671 47.6906 96.7713 47.6902H96.7754ZM96.1192 46.7652V46.9586C96.1194 47.109 96.1786 47.2532 96.2839 47.3594C96.3892 47.4657 96.5319 47.5254 96.6806 47.5254H96.7754C96.9241 47.5254 97.0667 47.4657 97.1719 47.3594C97.277 47.2531 97.3361 47.1089 97.3361 46.9586V45.9411L96.2181 45.4559L96.135 45.4113V46.7652H96.1192ZM98.469 47.4287H98.3733C98.1805 47.4282 97.9957 47.3505 97.8595 47.2126C97.7232 47.0747 97.6466 46.8878 97.6463 46.6929V45.8907L97.92 46.0092C97.9289 46.0112 97.9376 46.0144 97.9458 46.0185H97.9749L98.8899 47.2983L98.8067 47.3446C98.7016 47.4012 98.5839 47.4296 98.4648 47.427L98.469 47.4287ZM97.8127 46.1454V46.6929C97.8129 46.8432 97.872 46.9873 97.9771 47.0937C98.0822 47.2001 98.2246 47.26 98.3733 47.2605H98.469C98.5253 47.2605 98.5814 47.2523 98.6354 47.2361L97.8759 46.174L97.8127 46.1454ZM95.1418 47.4161H95.0461C94.8534 47.4158 94.6686 47.3383 94.5323 47.2005C94.396 47.0628 94.3194 46.876 94.3192 46.6811V43.7379H94.295V43.6538C94.2978 43.5237 94.3502 43.3996 94.4414 43.3076C94.5325 43.2156 94.6553 43.1628 94.7841 43.1602H95.3664C95.4621 43.1614 95.5554 43.1909 95.6347 43.2449C95.7141 43.299 95.7761 43.3754 95.8131 43.4646L95.8347 43.5168L95.7232 43.6295C95.6462 43.7161 95.5931 43.8217 95.5695 43.9357C95.5458 44.0497 95.5524 44.168 95.5885 44.2786L95.6958 44.6041C95.7299 44.7129 95.7822 44.815 95.8505 44.906L95.8671 44.9278V46.6803C95.8662 46.8751 95.789 47.0617 95.6522 47.199C95.5154 47.3363 95.3304 47.4131 95.1376 47.4127L95.1418 47.4161ZM94.4764 43.5706H94.4888V46.6819C94.4891 46.8322 94.5482 46.9762 94.6533 47.0825C94.7584 47.1887 94.9008 47.2485 95.0495 47.2487H95.1451C95.2938 47.2487 95.4364 47.189 95.5415 47.0827C95.6467 46.9764 95.7058 46.8323 95.7058 46.6819V44.9808C95.6325 44.8814 95.5763 44.7702 95.5394 44.652L95.4329 44.3291C95.3873 44.1897 95.3791 44.0406 95.4092 43.897C95.4393 43.7533 95.5066 43.6204 95.6043 43.5117L95.6367 43.4789C95.6082 43.4327 95.5686 43.3945 95.5217 43.3678C95.4747 43.341 95.4219 43.3266 95.368 43.3259H94.7858C94.7141 43.3256 94.6443 43.349 94.5871 43.3926C94.5299 43.4362 94.4883 43.4975 94.4689 43.5672L94.4764 43.5706ZM93.4516 46.8257C93.2588 46.8253 93.074 46.7476 92.9377 46.6097C92.8015 46.4718 92.7248 46.2849 92.7246 46.0899V44.0045H92.7129V43.9204C92.7155 43.7902 92.7677 43.6661 92.8587 43.5739C92.9497 43.4818 93.0724 43.4288 93.2012 43.426H93.6903C93.8191 43.4288 93.9418 43.4818 94.0328 43.5739C94.1238 43.6661 94.176 43.7902 94.1786 43.9204V46.0899C94.178 46.1868 94.1586 46.2826 94.1214 46.3719C94.0841 46.4612 94.0299 46.5422 93.9616 46.6102C93.8934 46.6782 93.8126 46.732 93.7238 46.7684C93.635 46.8048 93.5399 46.8232 93.4441 46.8224L93.4516 46.8257ZM92.8901 43.8363V46.0899C92.8901 46.2403 92.9492 46.3844 93.0543 46.4907C93.1595 46.597 93.3021 46.6567 93.4507 46.6567C93.5994 46.6567 93.742 46.597 93.8472 46.4907C93.9523 46.3844 94.0114 46.2403 94.0114 46.0899V43.9204C94.0103 43.8344 93.9761 43.7521 93.916 43.6912C93.8558 43.6303 93.7746 43.5954 93.6895 43.5941H93.2004C93.1289 43.5935 93.0592 43.6164 93.0018 43.6596C92.9444 43.7027 92.9026 43.7636 92.8826 43.833L92.8901 43.8363ZM99.1877 44.5015L98.8084 44.1382C98.6123 43.9759 98.3807 43.8632 98.1329 43.8094L97.6497 43.7119V43.4831C97.6481 43.3537 97.6974 43.2289 97.7868 43.1362C97.8762 43.0435 97.9983 42.9905 98.1263 42.9887H98.7085C98.8344 42.9904 98.9547 43.0418 99.0437 43.1317C99.1327 43.2217 99.1835 43.3433 99.1852 43.4705L99.1877 44.5015ZM97.816 43.5765L98.1671 43.6471C98.4441 43.7066 98.7028 43.8333 98.9207 44.0163L99.0213 44.113V43.4747C99.0202 43.3919 98.9872 43.3127 98.9292 43.2541C98.8713 43.1956 98.793 43.1622 98.711 43.1611H98.1288C98.0449 43.1631 97.9653 43.1985 97.9072 43.2596C97.849 43.3207 97.8172 43.4026 97.8185 43.4873L97.816 43.5765ZM97.5182 43.6766L96.3446 43.4243C96.2541 43.4024 96.1598 43.4024 96.0692 43.4243L95.9628 43.4487L95.9686 43.3377C95.9741 43.207 96.0289 43.0835 96.1218 42.9925C96.2146 42.9015 96.3384 42.8499 96.4677 42.8483H97.0167C97.1484 42.8504 97.2741 42.9043 97.3672 42.9984C97.4603 43.0926 97.5136 43.2197 97.5157 43.3528L97.5182 43.6766ZM96.2065 43.2418C96.2647 43.2421 96.3228 43.2488 96.3795 43.262L97.3519 43.4697V43.3562C97.3504 43.2674 97.3149 43.1828 97.2528 43.12C97.1907 43.0572 97.1069 43.0213 97.0192 43.0198H96.4702C96.4013 43.0199 96.3341 43.0416 96.2779 43.082C96.2217 43.1224 96.1793 43.1794 96.1566 43.2452L96.2065 43.2418Z" fill="black"/>
</svg>
