<svg width="24" height="24" viewBox="0 0 24 24" fill="none" xmlns="http://www.w3.org/2000/svg">
<path fill-rule="evenodd" clip-rule="evenodd" d="M2.25 12C2.25 6.61704 6.61704 2.25 12 2.25C17.383 2.25 21.75 6.61704 21.75 12C21.75 17.383 17.383 21.75 12 21.75C6.61704 21.75 2.25 17.383 2.25 12ZM12 3.75C7.44546 3.75 3.75 7.44546 3.75 12C3.75 16.5545 7.44546 20.25 12 20.25C16.5545 20.25 20.25 16.5545 20.25 12C20.25 7.44546 16.5545 3.75 12 3.75Z" fill="black"/>
<path fill-rule="evenodd" clip-rule="evenodd" d="M16.9823 7.67574C17.2995 7.94216 17.3406 8.41525 17.0742 8.73241L10.7742 16.2324C10.6345 16.3986 10.4297 16.4962 10.2127 16.4999C9.99565 16.5036 9.78764 16.4131 9.64242 16.2517L6.94241 13.2517C6.66532 12.9439 6.69028 12.4696 6.99816 12.1925C7.30604 11.9155 7.78026 11.9404 8.05736 12.2483L10.1804 14.6072L15.9256 7.76762C16.192 7.45046 16.6651 7.40932 16.9823 7.67574Z" fill="black"/>
</svg>
