<svg width="24" height="24" viewBox="0 0 24 24" fill="none" xmlns="http://www.w3.org/2000/svg">
<path d="M13.5908 12L18.0439 7.54687C18.2553 7.3359 18.3742 7.04962 18.3744 6.75099C18.3747 6.45237 18.2563 6.16587 18.0453 5.95453C17.8344 5.74319 17.5481 5.62431 17.2495 5.62404C16.9508 5.62378 16.6643 5.74215 16.453 5.95312L11.9999 10.4062L7.54675 5.95312C7.33541 5.74178 7.04876 5.62305 6.74988 5.62305C6.45099 5.62305 6.16435 5.74178 5.953 5.95312C5.74166 6.16447 5.62292 6.45111 5.62292 6.75C5.62292 7.04888 5.74166 7.33553 5.953 7.54687L10.4061 12L5.953 16.4531C5.74166 16.6645 5.62292 16.9511 5.62292 17.25C5.62292 17.5489 5.74166 17.8355 5.953 18.0469C6.16435 18.2582 6.45099 18.3769 6.74988 18.3769C7.04876 18.3769 7.33541 18.2582 7.54675 18.0469L11.9999 13.5937L16.453 18.0469C16.6643 18.2582 16.951 18.3769 17.2499 18.3769C17.5488 18.3769 17.8354 18.2582 18.0468 18.0469C18.2581 17.8355 18.3768 17.5489 18.3768 17.25C18.3768 16.9511 18.2581 16.6645 18.0468 16.4531L13.5908 12Z" fill="white"/>
</svg>
