<svg width="48" height="48" viewBox="0 0 48 48" fill="none" xmlns="http://www.w3.org/2000/svg">
<path fill-rule="evenodd" clip-rule="evenodd" d="M27.926 3.11419C28.4865 2.88202 29.1317 3.01036 29.5607 3.43935L40.0607 13.9394C40.6465 14.5251 40.6465 15.4749 40.0607 16.0607L29.5607 26.5607C29.1317 26.9897 28.4865 27.118 27.926 26.8858C27.3655 26.6537 27 26.1067 27 25.5V16.5H9C8.17157 16.5 7.5 15.8284 7.5 15C7.5 14.1716 8.17157 13.5 9 13.5H27V4.50001C27 3.89332 27.3655 3.34637 27.926 3.11419ZM30 16.5V21.8787L35.3787 16.5H30ZM35.3787 13.5H30V8.12133L35.3787 13.5ZM20.074 21.1142C20.6345 21.3464 21 21.8933 21 22.5V31.5H39C39.8284 31.5 40.5 32.1716 40.5 33C40.5 33.8284 39.8284 34.5 39 34.5H21V43.5C21 44.1067 20.6345 44.6537 20.074 44.8858C19.5135 45.118 18.8683 44.9897 18.4393 44.5607L7.93934 34.0607C7.35355 33.4749 7.35355 32.5251 7.93934 31.9393L18.4393 21.4394C18.8683 21.0104 19.5135 20.882 20.074 21.1142ZM18 31.5V26.1213L12.6213 31.5H18ZM12.6213 34.5H18V39.8787L12.6213 34.5Z" fill="white"/>
</svg>
