<svg width="24" height="24" viewBox="0 0 24 24" fill="none" xmlns="http://www.w3.org/2000/svg">
<path fill-rule="evenodd" clip-rule="evenodd" d="M13.963 1.55709C14.2432 1.441 14.5658 1.50517 14.7803 1.71967L20.0303 6.96967C20.3232 7.26256 20.3232 7.73744 20.0303 8.03033L14.7803 13.2803C14.5658 13.4948 14.2432 13.559 13.963 13.4429C13.6827 13.3268 13.5 13.0533 13.5 12.75V8.25H4.5C4.08579 8.25 3.75 7.91421 3.75 7.5C3.75 7.08579 4.08579 6.75 4.5 6.75H13.5V2.25C13.5 1.94665 13.6827 1.67318 13.963 1.55709ZM15 8.25V10.9393L17.6893 8.25H15ZM17.6893 6.75H15V4.06066L17.6893 6.75ZM10.037 10.5571C10.3173 10.6732 10.5 10.9467 10.5 11.25V15.75H19.5C19.9142 15.75 20.25 16.0858 20.25 16.5C20.25 16.9142 19.9142 17.25 19.5 17.25H10.5V21.75C10.5 22.0533 10.3173 22.3268 10.037 22.4429C9.75676 22.559 9.43417 22.4948 9.21967 22.2803L3.96967 17.0303C3.67678 16.7374 3.67678 16.2626 3.96967 15.9697L9.21967 10.7197C9.43417 10.5052 9.75676 10.441 10.037 10.5571ZM9 15.75V13.0607L6.31066 15.75H9ZM6.31066 17.25H9V19.9393L6.31066 17.25Z" fill="black"/>
</svg>
