<svg width="40" height="40" viewBox="0 0 40 40" fill="none" xmlns="http://www.w3.org/2000/svg">
<path d="M15.2202 38.7499C15.0108 38.75 14.8039 38.7044 14.614 38.616C14.4241 38.5277 14.2558 38.3988 14.1211 38.2385C13.9863 38.0782 13.8883 37.8903 13.8339 37.6881C13.7795 37.4858 13.77 37.2741 13.8062 37.0678V37.0592L16.0023 24.9999H7.49993C7.26393 24.9998 7.03276 24.933 6.83315 24.8071C6.63355 24.6812 6.47367 24.5013 6.372 24.2884C6.27033 24.0754 6.23103 23.838 6.25865 23.6036C6.28627 23.3692 6.37967 23.1474 6.52805 22.9639L23.6507 1.79674C23.8456 1.54934 24.1162 1.37258 24.421 1.2935C24.7259 1.21441 25.0483 1.23735 25.3389 1.35882C25.6294 1.48028 25.8723 1.69357 26.0302 1.96609C26.188 2.2386 26.2523 2.55533 26.2132 2.86784C26.2132 2.89127 26.207 2.91393 26.2031 2.93737L23.9991 14.9999H32.4999C32.7359 14.9999 32.9671 15.0667 33.1667 15.1926C33.3663 15.3186 33.5262 15.4984 33.6279 15.7114C33.7295 15.9244 33.7688 16.1618 33.7412 16.3961C33.7136 16.6305 33.6202 16.8523 33.4718 17.0358L16.3468 38.203C16.2122 38.373 16.0411 38.5105 15.846 38.6052C15.651 38.6999 15.4371 38.7493 15.2202 38.7499Z" fill="white"/>
</svg>
