<svg width="24" height="24" viewBox="0 0 24 24" fill="none" xmlns="http://www.w3.org/2000/svg">
<path fill-rule="evenodd" clip-rule="evenodd" d="M5.25 9.75C5.25 9.33579 5.58579 9 6 9H18C18.4142 9 18.75 9.33579 18.75 9.75V11.25C18.75 14.7108 16.1143 17.5826 12.75 17.9584V20.25H15C15.4142 20.25 15.75 20.5858 15.75 21C15.75 21.4142 15.4142 21.75 15 21.75H9C8.58579 21.75 8.25 21.4142 8.25 21C8.25 20.5858 8.58579 20.25 9 20.25H11.25V17.9584C7.88568 17.5826 5.25 14.7108 5.25 11.25V9.75ZM12 16.5C14.8858 16.5 17.25 14.1358 17.25 11.25V10.5H6.75V11.25C6.75 14.1358 9.11421 16.5 12 16.5Z" fill="#5446F6"/>
<path d="M12.0001 15C11.5051 14.9989 11.0154 14.8983 10.56 14.7042C10.1047 14.5101 9.69296 14.2266 9.34931 13.8703C8.64579 13.1608 8.25077 12.2023 8.25009 11.2031V6.00001C8.24817 5.50702 8.34385 5.01852 8.53163 4.56268C8.7194 4.10684 8.99555 3.69268 9.34416 3.34408C9.69276 2.99548 10.1069 2.71933 10.5628 2.53155C11.0186 2.34378 11.5071 2.24809 12.0001 2.25001C14.1029 2.25001 15.7501 3.8972 15.7501 6.00001V11.2031C15.7501 13.2966 14.0677 15 12.0001 15Z" fill="#5446F6"/>
</svg>
