<svg width="24" height="24" viewBox="0 0 24 24" fill="none" xmlns="http://www.w3.org/2000/svg">
<path d="M19.9548 5.54299C17.8848 3.4854 15.0963 2.3128 12.1779 2.27279C9.25956 2.23278 6.43989 3.3285 4.31431 5.32856C2.18874 7.32863 0.923642 10.0765 0.786178 12.9919C0.648714 15.9072 1.64964 18.7619 3.57759 20.9531L3.58603 20.9625C3.6015 20.9789 3.61603 20.9958 3.6329 21.0117C3.66759 21.0511 3.70697 21.0956 3.75337 21.142C3.93537 21.3355 4.15533 21.4893 4.39949 21.5938C4.64366 21.6983 4.90677 21.7513 5.17236 21.7495C5.43794 21.7476 5.70029 21.691 5.94298 21.5831C6.18566 21.4752 6.40346 21.3183 6.58275 21.1224C7.27259 20.3726 8.11047 19.7742 9.04342 19.3648C9.97636 18.9554 10.9841 18.7441 12.0029 18.7441C13.0217 18.7441 14.0294 18.9554 14.9624 19.3648C15.8953 19.7742 16.7332 20.3726 17.4231 21.1224C17.6037 21.3193 17.8232 21.4767 18.0678 21.5844C18.3124 21.6921 18.5767 21.7479 18.8439 21.7481C19.1112 21.7484 19.3756 21.6932 19.6204 21.5859C19.8652 21.4787 20.085 21.3218 20.266 21.1252L20.4165 20.9611L20.4249 20.9517C22.3246 18.8067 23.3338 16.0174 23.2467 13.1535C23.1596 10.2895 21.9827 7.56676 19.9562 5.54111L19.9548 5.54299ZM11.2501 6.00002C11.2501 5.8011 11.3291 5.61034 11.4698 5.46969C11.6104 5.32903 11.8012 5.25002 12.0001 5.25002C12.199 5.25002 12.3898 5.32903 12.5304 5.46969C12.6711 5.61034 12.7501 5.8011 12.7501 6.00002V7.50002C12.7501 7.69893 12.6711 7.88969 12.5304 8.03035C12.3898 8.171 12.199 8.25002 12.0001 8.25002C11.8012 8.25002 11.6104 8.171 11.4698 8.03035C11.3291 7.88969 11.2501 7.69893 11.2501 7.50002V6.00002ZM6.00009 14.25H4.50009C4.30118 14.25 4.11041 14.171 3.96976 14.0303C3.82911 13.8897 3.75009 13.6989 3.75009 13.5C3.75009 13.3011 3.82911 13.1103 3.96976 12.9697C4.11041 12.829 4.30118 12.75 4.50009 12.75H6.00009C6.199 12.75 6.38977 12.829 6.53042 12.9697C6.67107 13.1103 6.75009 13.3011 6.75009 13.5C6.75009 13.6989 6.67107 13.8897 6.53042 14.0303C6.38977 14.171 6.199 14.25 6.00009 14.25ZM8.28759 9.78752C8.14695 9.92806 7.95626 10.007 7.75744 10.007C7.55861 10.007 7.36792 9.92806 7.22728 9.78752L6.1665 8.7272C6.02583 8.58654 5.9468 8.39575 5.9468 8.19681C5.9468 7.99788 6.02583 7.80709 6.1665 7.66642C6.30717 7.52575 6.49795 7.44673 6.69689 7.44673C6.89582 7.44673 7.08661 7.52575 7.22728 7.66642L8.28759 8.7272C8.42814 8.86784 8.50709 9.05853 8.50709 9.25736C8.50709 9.45619 8.42814 9.64688 8.28759 9.78752ZM15.286 10.8703L13.0595 14.4094C12.9684 14.5356 12.8576 14.6464 12.7313 14.7375C12.4266 14.9501 12.0502 15.034 11.684 14.9708C11.3178 14.9077 10.9913 14.7027 10.7753 14.4003C10.5593 14.0979 10.4713 13.7226 10.5303 13.3557C10.5894 12.9888 10.7907 12.66 11.0907 12.4406L14.6298 10.2141C14.7102 10.158 14.8059 10.1279 14.904 10.1279C15.0021 10.1279 15.0978 10.158 15.1782 10.2141C15.2793 10.287 15.3473 10.397 15.3675 10.52C15.3877 10.6429 15.3584 10.7689 15.286 10.8703ZM16.7729 9.78752C16.6311 9.92223 16.4423 9.99623 16.2467 9.99372C16.0512 9.99122 15.8643 9.91241 15.726 9.77411C15.5877 9.63581 15.5089 9.44896 15.5064 9.25338C15.5039 9.05781 15.5779 8.869 15.7126 8.7272L16.7729 7.66642C16.9136 7.52575 17.1044 7.44673 17.3033 7.44673C17.5022 7.44673 17.693 7.52575 17.8337 7.66642C17.9744 7.80709 18.0534 7.99788 18.0534 8.19681C18.0534 8.39575 17.9744 8.58654 17.8337 8.7272L16.7729 9.78752ZM19.5001 14.25H18.0001C17.8012 14.25 17.6104 14.171 17.4698 14.0303C17.3291 13.8897 17.2501 13.6989 17.2501 13.5C17.2501 13.3011 17.3291 13.1103 17.4698 12.9697C17.6104 12.829 17.8012 12.75 18.0001 12.75H19.5001C19.699 12.75 19.8898 12.829 20.0304 12.9697C20.1711 13.1103 20.2501 13.3011 20.2501 13.5C20.2501 13.6989 20.1711 13.8897 20.0304 14.0303C19.8898 14.171 19.699 14.25 19.5001 14.25Z" fill="black"/>
</svg>
