<svg width="18" height="18" viewBox="0 0 18 18" fill="none" xmlns="http://www.w3.org/2000/svg">
<path d="M13.8515 16.875C13.7332 16.8754 13.6176 16.8385 13.5214 16.7695L8.99999 13.4916L4.47854 16.7695C4.38194 16.8396 4.26557 16.8771 4.14624 16.8767C4.02691 16.8762 3.91081 16.8379 3.81472 16.7671C3.71863 16.6963 3.64754 16.5969 3.61172 16.483C3.5759 16.3692 3.57721 16.2469 3.61546 16.1339L5.37889 10.9107L0.808581 7.77655C0.709584 7.70874 0.634868 7.61104 0.595348 7.49774C0.555828 7.38444 0.553575 7.26148 0.588919 7.1468C0.624263 7.03213 0.695351 6.93177 0.791797 6.86037C0.888243 6.78898 1.00499 6.7503 1.12499 6.74999H6.76335L8.46491 1.51346C8.50156 1.40041 8.57309 1.30187 8.66922 1.23198C8.76534 1.16209 8.88114 1.12445 8.99999 1.12445C9.11884 1.12445 9.23463 1.16209 9.33076 1.23198C9.42689 1.30187 9.49841 1.40041 9.53506 1.51346L11.2366 6.75175H16.875C16.9951 6.75169 17.1121 6.7901 17.2089 6.86135C17.3056 6.93261 17.377 7.03296 17.4125 7.14772C17.4481 7.26248 17.446 7.38561 17.4065 7.49909C17.367 7.61256 17.2923 7.71041 17.1931 7.77831L12.6211 10.9107L14.3835 16.1325C14.412 16.217 14.4201 16.3071 14.4069 16.3954C14.3937 16.4837 14.3598 16.5675 14.3078 16.6401C14.2558 16.7126 14.1874 16.7717 14.108 16.8126C14.0287 16.8534 13.9408 16.8748 13.8515 16.875Z" fill="#5446F6"/>
</svg>
